Screens :  
http://www.piczend.com/image/1358731819_vlcsnap-2013-01-20-13h10m16s251.png358731821_vlcsnap-2013-01-20-13h10m21s38.png
 
http://www.piczend.com/image/1358731816_vlcsnap-2013-01-20-13h10m32s155.png
 
http://www.piczend.com/image/1358731820_vlcsnap-2013-01-20-13h10m36s190.png
 
http://www.piczend.com/image/1358731824_vlcsnap-2013-01-20-13h10m40s234.png
 
http://www.piczend.com/image/1358731814_vlcsnap-2013-01-20-13h10m46s34.png
 
http://www.piczend.com/image/1358731823_vlcsnap-2013-01-20-13h10m55s121.png
 
http://www.piczend.com/image/1358731827_vlcsnap-2013-01-20-14h58m02s139.png

Info :
Video
ID : 1
Format : AVC
Format/Info : Advanced Video Codec
Format profile : Main@L3.0
Format settings, CABAC : Yes
Format settings, ReFrames : 1 frame
Codec ID : avc1
Codec ID/Info : Advanced Video Coding
Duration : 1h 58mn
Bit rate mode : Variable
Bit rate : 813 Kbps
Width : 720 pixels
Height : 314 pixels
Display aspect ratio : 2.25:1
Frame rate mode : Variable
Frame rate : 23.976 fps
Minimum frame rate : 23.974 fps
Maximum frame rate : 90.000 fps
Color space : YUV
Chroma subsampling : 4:2:0
Bit depth : 8 bits
Scan type : Progressive
Bits/(Pixel*Frame) : 0.150
Stream size : 691 MiB (92%)
Writing library : x264 core
Encoded date : UTC 2013-01-20 19:39:32
Tagged date : UTC 2013-01-20 20:09:32
Color primaries : BT.601 NTSC
Transfer characteristics : BT.709
Matrix coefficients : BT.601

Audio
ID : 2
Format : MPEG Audio
Format version : Version 1
Format profile : Layer 3
Mode : Joint stereo
Mode extension : MS Stereo
Codec ID : 69
Duration : 1h 58mn
Bit rate mode : Constant
Bit rate : 64.0 Kbps
Channel(s) : 2 channels
Sampling rate : 48.0 KHz
Compression mode : Lossy
Stream size : 54.4 MiB (7%)
Writing library : LAME3.98.4
Encoded date : UTC 2013-01-20 19:39:32
Tagged date : UTC 2013-01-20 20:09:23
